<svg width="44" height="42" viewBox="0 0 44 42" fill="none" xmlns="http://www.w3.org/2000/svg">
<circle cx="21" cy="21" r="21" fill="#032B34"/>
<path d="M5.8959 12.6921C6.46559 12.7158 6.9878 12.8424 7.46254 13.0719C7.94519 13.2934 8.35663 13.5941 8.69686 13.9739C9.03708 14.3458 9.30215 14.7809 9.49204 15.2794C9.68194 15.77 9.77688 16.2922 9.77688 16.846C9.77688 17.392 9.68194 17.9142 9.49204 18.4127C9.30215 18.9032 9.03708 19.3384 8.69686 19.7182C8.35663 20.0901 7.94519 20.3908 7.46254 20.6202C6.9878 20.8418 6.46559 20.9644 5.8959 20.9881L3.80705 21V12.6921H5.8959ZM5.84843 20.0624C6.22822 20.0624 6.6001 19.9872 6.96406 19.8369C7.32803 19.6786 7.64848 19.4611 7.92541 19.1841C8.20234 18.8993 8.42388 18.5591 8.59004 18.1634C8.76411 17.7678 8.85115 17.3287 8.85115 16.846C8.85115 16.3713 8.76807 15.9361 8.60191 15.5405C8.43575 15.1449 8.21025 14.8047 7.92541 14.5198C7.64848 14.235 7.32803 14.0134 6.96406 13.8552C6.60801 13.6969 6.23613 13.6178 5.84843 13.6178H4.73279V20.0624H5.84843ZM13.465 15.0302C13.8844 15.0302 14.28 15.1132 14.6518 15.2794C15.0237 15.4377 15.3481 15.6552 15.6251 15.9322C15.902 16.2091 16.1196 16.5335 16.2778 16.9054C16.444 17.2773 16.5271 17.6729 16.5271 18.0922C16.5271 18.5116 16.444 18.9072 16.2778 19.2791C16.1196 19.651 15.902 19.9754 15.6251 20.2523C15.3481 20.5292 15.0237 20.7468 14.6518 20.9051C14.28 21.0633 13.8844 21.1424 13.465 21.1424C13.0457 21.1424 12.65 21.0633 12.2782 20.9051C11.9063 20.7468 11.5819 20.5292 11.3049 20.2523C11.028 19.9754 10.8104 19.651 10.6522 19.2791C10.4939 18.9072 10.4148 18.5116 10.4148 18.0922C10.4148 17.6729 10.4939 17.2773 10.6522 16.9054C10.8104 16.5335 11.028 16.2091 11.3049 15.9322C11.5819 15.6552 11.9063 15.4377 12.2782 15.2794C12.65 15.1132 13.0457 15.0302 13.465 15.0302ZM13.465 20.2167C13.7657 20.2167 14.0426 20.1613 14.2958 20.0505C14.5569 19.9398 14.7824 19.7894 14.9723 19.5995C15.1701 19.4096 15.3244 19.1841 15.4352 18.923C15.5459 18.6619 15.6013 18.385 15.6013 18.0922C15.6013 17.7916 15.5459 17.5146 15.4352 17.2614C15.3244 17.0003 15.1701 16.7748 14.9723 16.5849C14.7824 16.3871 14.5569 16.2328 14.2958 16.1221C14.0426 16.0113 13.7657 15.9559 13.465 15.9559C13.1722 15.9559 12.8953 16.0113 12.6342 16.1221C12.3731 16.2328 12.1476 16.3871 11.9577 16.5849C11.7678 16.7748 11.6175 17.0003 11.5067 17.2614C11.3959 17.5146 11.3406 17.7916 11.3406 18.0922C11.3406 18.385 11.3959 18.6619 11.5067 18.923C11.6175 19.1841 11.7678 19.4096 11.9577 19.5995C12.1476 19.7894 12.3731 19.9398 12.6342 20.0505C12.8953 20.1613 13.1722 20.2167 13.465 20.2167ZM20.3267 15.042C20.6986 15.042 21.0467 15.1132 21.3712 15.2557C21.7035 15.3902 21.9923 15.5801 22.2375 15.8254C22.4828 16.0706 22.6727 16.3594 22.8072 16.6918C22.9497 17.0162 23.0209 17.3643 23.0209 17.7362V21H22.0951V17.8786C22.0951 17.665 22.0595 17.4474 21.9883 17.2258C21.925 16.9964 21.8182 16.7907 21.6679 16.6087C21.5254 16.4188 21.3435 16.2645 21.1219 16.1458C20.9004 16.0271 20.6353 15.9678 20.3267 15.9678C20.0498 15.9678 19.8006 16.035 19.579 16.1695C19.3575 16.3041 19.1715 16.4742 19.0212 16.6799C18.8709 16.8777 18.7561 17.0953 18.677 17.3326C18.5979 17.5621 18.5583 17.7718 18.5583 17.9617V21H17.6326V15.1845L18.3684 16.1695C18.4396 16.0825 18.5346 15.9757 18.6533 15.8491C18.772 15.7146 18.9144 15.588 19.0805 15.4693C19.2467 15.3506 19.4326 15.2517 19.6384 15.1726C19.852 15.0856 20.0814 15.042 20.3267 15.042Z" fill="white"/>
<path d="M15.0797 26.2524C15.5624 26.4344 15.9184 26.6995 16.1479 27.0476C16.3853 27.3957 16.5039 27.8072 16.5039 28.2819C16.5039 28.6063 16.4248 28.9149 16.2666 29.2077C16.1083 29.4925 15.8987 29.7417 15.6375 29.9554C15.3764 30.169 15.0718 30.3391 14.7237 30.4657C14.3755 30.5923 14.0116 30.6556 13.6318 30.6556C13.0779 30.6556 12.5755 30.5132 12.1245 30.2283C11.6814 29.9435 11.3412 29.5716 11.1038 29.1127L11.899 28.6498C11.9623 28.7764 12.0454 28.907 12.1482 29.0415C12.2511 29.1681 12.3777 29.2828 12.528 29.3857C12.6783 29.4885 12.8445 29.5716 13.0265 29.6349C13.2164 29.6982 13.4181 29.7299 13.6318 29.7299C13.8375 29.7299 14.0551 29.6982 14.2845 29.6349C14.514 29.5637 14.7237 29.4648 14.9136 29.3382C15.1035 29.2116 15.2617 29.0573 15.3883 28.8753C15.5149 28.6854 15.5782 28.4758 15.5782 28.2463C15.5782 28.0643 15.5347 27.9061 15.4477 27.7716C15.3685 27.6371 15.2657 27.5184 15.1391 27.4155C15.0204 27.3127 14.8859 27.2256 14.7355 27.1544C14.5931 27.0753 14.4586 27.012 14.332 26.9645L12.4687 26.288C12.3025 26.2247 12.1364 26.1337 11.9702 26.015C11.804 25.8884 11.6537 25.7421 11.5192 25.5759C11.3847 25.4098 11.2739 25.2238 11.1869 25.0181C11.0998 24.8045 11.0563 24.579 11.0563 24.3416C11.0563 24.0251 11.1196 23.7284 11.2462 23.4515C11.3807 23.1745 11.5667 22.9332 11.804 22.7275C12.0414 22.5218 12.3223 22.3596 12.6467 22.2409C12.979 22.1222 13.3469 22.0628 13.7505 22.0628C14.241 22.0628 14.6841 22.1934 15.0797 22.4545C15.4753 22.7077 15.776 23.04 15.9817 23.4515L15.1865 23.9143C15.1312 23.8115 15.06 23.7047 14.9729 23.5939C14.8859 23.4831 14.7791 23.3842 14.6525 23.2972C14.5259 23.2101 14.3834 23.1389 14.2252 23.0835C14.067 23.0202 13.8929 22.9886 13.703 22.9886C13.434 22.9886 13.1926 23.0281 12.979 23.1073C12.7654 23.1785 12.5834 23.2813 12.4331 23.4159C12.2906 23.5424 12.1799 23.6888 12.1008 23.855C12.0295 24.0211 11.9939 24.1992 11.9939 24.3891C11.9939 24.5631 12.0375 24.7135 12.1245 24.8401C12.2115 24.9667 12.3144 25.0774 12.4331 25.1724C12.5597 25.2673 12.6863 25.3425 12.8129 25.3979C12.9474 25.4533 13.0542 25.4968 13.1333 25.5284L15.0797 26.2524ZM18.6027 25.6234V27.7716C18.6027 28.0564 18.6462 28.3215 18.7333 28.5668C18.8282 28.8041 18.9548 29.0098 19.1131 29.1839C19.2713 29.358 19.4572 29.4925 19.6709 29.5874C19.8924 29.6824 20.1258 29.7299 20.3711 29.7299V30.6556C19.9992 30.6556 19.6471 30.5844 19.3148 30.442C18.9904 30.2996 18.7056 30.1097 18.4603 29.8723C18.2229 29.627 18.033 29.3422 17.8906 29.0178C17.7482 28.6854 17.677 28.3333 17.677 27.9615V25.6234H16.9767L17.677 24.6976V22.2053H18.6027V24.6976H20.3711V25.6234H18.6027ZM24.0529 24.5434C24.4723 24.5434 24.8679 24.6264 25.2398 24.7926C25.6116 24.9508 25.9361 25.1684 26.213 25.4454C26.4899 25.7223 26.7075 26.0467 26.8657 26.4186C27.0319 26.7904 27.115 27.1861 27.115 27.6054C27.115 28.0248 27.0319 28.4204 26.8657 28.7923C26.7075 29.1641 26.4899 29.4885 26.213 29.7655C25.9361 30.0424 25.6116 30.26 25.2398 30.4182C24.8679 30.5765 24.4723 30.6556 24.0529 30.6556C23.6336 30.6556 23.238 30.5765 22.8661 30.4182C22.4942 30.26 22.1698 30.0424 21.8929 29.7655C21.6159 29.4885 21.3984 29.1641 21.2401 28.7923C21.0819 28.4204 21.0027 28.0248 21.0027 27.6054C21.0027 27.1861 21.0819 26.7904 21.2401 26.4186C21.3984 26.0467 21.6159 25.7223 21.8929 25.4454C22.1698 25.1684 22.4942 24.9508 22.8661 24.7926C23.238 24.6264 23.6336 24.5434 24.0529 24.5434ZM24.0529 29.7299C24.3536 29.7299 24.6305 29.6745 24.8837 29.5637C25.1448 29.4529 25.3703 29.3026 25.5602 29.1127C25.758 28.9228 25.9123 28.6973 26.0231 28.4362C26.1339 28.1751 26.1892 27.8982 26.1892 27.6054C26.1892 27.3047 26.1339 27.0278 26.0231 26.7746C25.9123 26.5135 25.758 26.288 25.5602 26.0981C25.3703 25.9003 25.1448 25.746 24.8837 25.6353C24.6305 25.5245 24.3536 25.4691 24.0529 25.4691C23.7602 25.4691 23.4832 25.5245 23.2221 25.6353C22.961 25.746 22.7355 25.9003 22.5456 26.0981C22.3557 26.288 22.2054 26.5135 22.0946 26.7746C21.9839 27.0278 21.9285 27.3047 21.9285 27.6054C21.9285 27.8982 21.9839 28.1751 22.0946 28.4362C22.2054 28.6973 22.3557 28.9228 22.5456 29.1127C22.7355 29.3026 22.961 29.4529 23.2221 29.5637C23.4832 29.6745 23.7602 29.7299 24.0529 29.7299ZM28.9564 25.7421C29.075 25.5838 29.2175 25.4335 29.3836 25.2911C29.5498 25.1407 29.7318 25.0141 29.9296 24.9113C30.1274 24.8005 30.3371 24.7135 30.5586 24.6502C30.7881 24.5869 31.0215 24.5552 31.2588 24.5552C31.6703 24.5552 32.0659 24.6343 32.4457 24.7926L32.1608 25.6827C32.0422 25.6194 31.8918 25.572 31.7098 25.5403C31.5358 25.5007 31.3657 25.481 31.1995 25.481C30.8909 25.481 30.6061 25.5561 30.345 25.7065C30.0918 25.8489 29.8742 26.0269 29.6922 26.2405C29.5181 26.4542 29.3836 26.6836 29.2887 26.9289C29.1937 27.1663 29.1463 27.3799 29.1463 27.5698V30.5132H28.2205V24.6976L28.9564 25.7421ZM35.6404 24.5434C36.044 24.5434 36.4237 24.6264 36.7798 24.7926C37.1359 24.9508 37.4444 25.1684 37.7055 25.4454C37.9666 25.7223 38.1724 26.0467 38.3227 26.4186C38.4809 26.7904 38.5601 27.1861 38.5601 27.6054C38.5601 27.827 38.5363 28.0445 38.4889 28.2582H33.7533C33.8166 28.4718 33.9116 28.6696 34.0382 28.8516C34.1648 29.0336 34.3112 29.1918 34.4773 29.3263C34.6435 29.4529 34.8215 29.5518 35.0114 29.623C35.2092 29.6943 35.411 29.7299 35.6167 29.7299C35.8857 29.7299 36.1191 29.714 36.3169 29.6824C36.5147 29.6428 36.6888 29.5954 36.8391 29.54C36.9895 29.4767 37.1161 29.4094 37.2189 29.3382C37.3218 29.267 37.4128 29.1918 37.4919 29.1127L38.1328 29.7773C37.8638 30.0464 37.5315 30.26 37.1359 30.4182C36.7481 30.5765 36.2378 30.6556 35.6048 30.6556C35.2013 30.6556 34.8215 30.5765 34.4654 30.4182C34.1173 30.2521 33.8127 30.0305 33.5516 29.7536C33.2905 29.4767 33.0848 29.1562 32.9344 28.7923C32.7841 28.4204 32.7089 28.0248 32.7089 27.6054C32.7089 27.1861 32.7841 26.7904 32.9344 26.4186C33.0927 26.0467 33.3023 25.7223 33.5634 25.4454C33.8325 25.1684 34.145 24.9508 34.5011 24.7926C34.8571 24.6264 35.2369 24.5434 35.6404 24.5434ZM37.5631 27.4749C37.5789 27.1979 37.5354 26.9408 37.4326 26.7034C37.3297 26.4581 37.1873 26.2445 37.0053 26.0625C36.8312 25.8805 36.6216 25.7381 36.3763 25.6353C36.1389 25.5245 35.8897 25.4691 35.6286 25.4691C35.3595 25.4691 35.1024 25.5205 34.8571 25.6234C34.6197 25.7183 34.4101 25.8568 34.2281 26.0388C34.054 26.2128 33.9155 26.4225 33.8127 26.6678C33.7177 26.9131 33.6742 27.1821 33.6821 27.4749H37.5631Z" fill="white"/>
</svg>
